<svg width="226" height="256" viewBox="0 0 226 256" fill="none" xmlns="http://www.w3.org/2000/svg">
<path d="M112.726 256L20.543 230.409L0 0H225.728L205.164 230.374L112.726 256V256Z" fill="#264DE4"/>
<path d="M187.559 215.704L205.131 18.8389H112.864V236.412L187.559 215.704V215.704Z" fill="#2965F1"/>
<path d="M47.0944 104.295L49.6268 132.553H112.865V104.295H47.0944ZM42.0049 47.0984L44.5735 75.3572H112.865V47.0984H42.0049V47.0984ZM112.865 177.686L112.741 177.718L81.2691 169.221L79.257 146.683H50.8894L54.8481 191.054L112.734 207.122L112.865 207.087V177.686Z" fill="#EBEBEB"/>
<path d="M178.454 104.295L183.555 47.0984H112.767V75.3572H152.586L150.015 104.295H112.767V132.553H147.565L144.284 169.203L112.766 177.71V207.109L170.698 191.054L171.123 186.279L177.765 111.883L178.454 104.295V104.295Z" fill="white"/>
</svg>
