<svg width="228" height="256" viewBox="0 0 228 256" fill="none" xmlns="http://www.w3.org/2000/svg">
<path d="M227.764 75.2637C227.762 70.9592 226.841 67.1556 224.98 63.892C223.151 60.681 220.412 57.9904 216.739 55.8631C186.415 38.3786 156.063 20.9476 125.75 3.44529C117.577 -1.27273 109.654 -1.09984 101.542 3.68592C89.4723 10.8031 29.0443 45.4236 11.0375 55.8533C3.62185 60.1472 0.013368 66.7171 0.0115856 75.2557C0 110.418 0.0115856 145.58 0 180.743C0 184.953 0.883182 188.684 2.66291 191.898C4.49255 195.205 7.26954 197.97 11.0277 200.145C29.0354 210.575 89.4714 245.193 101.538 252.313C109.654 257.101 117.577 257.272 125.752 252.553C156.066 235.05 186.421 217.619 216.748 200.135C220.507 197.96 223.284 195.194 225.113 191.889C226.89 188.674 227.775 184.944 227.775 180.733C227.775 180.733 227.775 110.427 227.764 75.2637Z" fill="#A179DC"/>
<path d="M114.236 127.657L2.6626 191.898C4.49224 195.205 7.26922 197.97 11.0274 200.145C29.0351 210.575 89.4711 245.193 101.538 252.313C109.653 257.101 117.577 257.272 125.752 252.553C156.066 235.05 186.421 217.619 216.748 200.135C220.506 197.96 223.283 195.194 225.113 191.889L114.236 127.657" fill="#280068"/>
<path d="M227.764 75.2638C227.762 70.9593 226.842 67.1557 224.98 63.8921L114.236 127.658L225.113 191.889C226.891 188.674 227.774 184.944 227.776 180.733C227.776 180.733 227.776 110.427 227.764 75.2638" fill="#390091"/>
<path d="M179.927 103.641V115.649H191.935V103.641H197.939V115.649H209.947V121.653H197.939V133.661H209.947V139.665H197.939V151.673H191.935V139.665H179.927V151.673H173.923V139.665H161.916V133.661H173.923V121.653H161.916V115.649H173.923V103.641H179.927ZM191.935 121.653H179.927V133.661H191.935V121.653V121.653Z" fill="white"/>
<path d="M114.481 43.3356C145.801 43.3356 173.146 60.3451 187.793 85.6285L187.651 85.3852L150.799 106.603C143.54 94.3106 130.23 86.0144 114.961 85.8433L114.48 85.8406C91.1975 85.8406 72.3218 104.716 72.3218 127.999C72.3142 135.337 74.2314 142.55 77.882 148.915C85.1489 161.602 98.8101 170.158 114.481 170.158C130.249 170.158 143.988 161.493 151.217 148.671L151.042 148.979L187.837 170.295C173.35 195.364 146.38 212.321 115.424 212.659L114.481 212.664C83.0617 212.664 55.6394 195.549 41.029 170.132C33.8967 157.724 29.8159 143.339 29.8159 127.999C29.8159 81.2411 67.7205 43.3347 114.48 43.3347L114.481 43.3356Z" fill="white"/>
</svg>
