<svg width="226" height="256" viewBox="0 0 226 256" fill="none" xmlns="http://www.w3.org/2000/svg">
<path d="M225.728 0L205.164 230.374L112.726 256L20.543 230.409L0 0H225.728Z" fill="#E44D26"/>
<path d="M112.864 236.412L187.559 215.704L205.131 18.8389H112.864V236.412Z" fill="#F16529"/>
<path d="M72.888 75.3572H112.865V47.0984H42.0049L42.6809 54.6796L49.6268 132.553H112.865V104.295H75.4708L72.888 75.3572V75.3572ZM79.257 146.683H50.8894L54.8481 191.054L112.734 207.122L112.865 207.087V177.686L112.741 177.718L81.2691 169.221L79.257 146.683Z" fill="#EBEBEB"/>
<path d="M112.767 132.553H147.565L144.284 169.203L112.766 177.71V207.109L170.698 191.054L171.123 186.279L177.765 111.883L178.454 104.295H112.767V132.553ZM112.767 75.2882V75.3572H181.025L181.592 69.0059L182.88 54.6796L183.555 47.0984H112.767V75.289V75.2882Z" fill="white"/>
</svg>
