<svg width="249" height="256" viewBox="0 0 249 256" fill="none" xmlns="http://www.w3.org/2000/svg">
<path d="M248.535 57.9141C248.627 58.2551 248.675 58.6067 248.675 58.9603V113.91C248.675 115.345 247.907 116.671 246.661 117.385L200.543 143.94V196.57C200.543 197.274 200.358 197.966 200.006 198.576C199.655 199.186 199.149 199.693 198.54 200.046L102.268 255.467C102.047 255.591 101.807 255.671 101.566 255.757C101.476 255.786 101.391 255.842 101.296 255.867C100.623 256.044 99.9157 256.044 99.2426 255.867C99.1319 255.838 99.0318 255.777 98.9269 255.737C98.7064 255.656 98.4762 255.586 98.2664 255.467L2.01368 200.045C1.40204 199.694 0.893812 199.188 0.540266 198.578C0.18672 197.968 0.000364622 197.275 0 196.57L0 31.7217C0 31.3603 0.0505121 31.0097 0.13988 30.6697C0.169993 30.5541 0.239932 30.4492 0.280731 30.3336C0.355527 30.1238 0.426438 29.9081 0.536205 29.7129C0.611002 29.5827 0.720768 29.4778 0.811107 29.3573C0.926702 29.197 1.03161 29.0319 1.16663 28.8911C1.28223 28.7764 1.43279 28.691 1.56296 28.5909C1.70867 28.4705 1.83786 28.3403 2.003 28.2451H2.00785L50.1361 0.535334C50.7456 0.184597 51.4365 0 52.1396 0C52.8428 0 53.5337 0.184597 54.1431 0.535334L102.271 28.2451H102.281C102.441 28.3461 102.577 28.4705 102.722 28.586C102.852 28.6861 102.998 28.7764 103.113 28.8872C103.253 29.0319 103.354 29.198 103.473 29.3573C103.558 29.4778 103.674 29.5827 103.744 29.7129C103.859 29.913 103.924 30.1238 104.004 30.3345C104.044 30.4492 104.114 30.5541 104.144 30.6745C104.237 31.0155 104.284 31.3681 104.285 31.7217V134.683L144.39 111.59V58.9555C144.39 58.6058 144.44 58.2493 144.531 57.9141C144.566 57.7937 144.631 57.6888 144.67 57.5741C144.751 57.3634 144.821 57.1467 144.931 56.9525C145.006 56.8223 145.115 56.7174 145.202 56.5969C145.321 56.4367 145.421 56.2715 145.561 56.1307C145.678 56.016 145.823 55.9306 145.953 55.8305C146.103 55.7101 146.233 55.5799 146.394 55.4847H146.399L194.532 27.7749C195.141 27.4237 195.832 27.2389 196.535 27.2389C197.238 27.2389 197.929 27.4237 198.539 27.7749L246.667 55.4847C246.837 55.5848 246.967 55.7101 247.118 55.8247C247.242 55.9257 247.388 56.016 247.503 56.1258C247.643 56.2715 247.743 56.4367 247.863 56.5969C247.954 56.7174 248.064 56.8223 248.135 56.9525C248.249 57.1467 248.314 57.3634 248.394 57.5741C248.44 57.6888 248.505 57.7937 248.535 57.9141V57.9141ZM240.652 111.591V65.897L223.809 75.5924L200.542 88.9897V134.684L240.657 111.591H240.652V111.591ZM192.524 194.251V148.525L169.636 161.597L104.28 198.898V245.053L192.524 194.249V194.251ZM8.02268 38.6574V194.251L96.2566 245.049V198.903L50.1624 172.816L50.1478 172.806L50.1284 172.796C49.973 172.706 49.8418 172.576 49.6971 172.466C49.5708 172.365 49.4261 172.285 49.3163 172.174L49.3066 172.16C49.1764 172.035 49.0861 171.879 48.9763 171.739C48.8753 171.603 48.7558 171.489 48.6752 171.349L48.6703 171.333C48.58 171.184 48.5246 171.003 48.4595 170.833C48.3945 170.682 48.3099 170.541 48.2691 170.382V170.377C48.2196 170.187 48.2099 169.986 48.1895 169.791C48.1701 169.641 48.1293 169.49 48.1293 169.34V61.7511L24.8655 48.3479L8.02268 38.6632V38.6574ZM52.145 8.63864L12.0442 31.7217L52.1353 54.8038L92.2302 31.7159L52.1353 8.63864H52.145ZM72.9987 152.693L96.2614 139.302V38.6574L79.4205 48.3538L56.151 61.7501V162.394L72.9987 152.693V152.693ZM196.535 35.8782L156.44 58.9603L196.535 82.0434L236.625 58.9555L196.536 35.8782H196.535ZM192.523 88.9897L169.255 75.5924L152.413 65.897V111.591L175.676 124.983L192.524 134.684V88.9897H192.523ZM100.264 191.962L159.074 158.388L188.472 141.61L148.406 118.542L102.276 145.1L60.2327 169.305L100.264 191.962Z" fill="#FF2D20"/>
</svg>
