<svg width="228" height="256" viewBox="0 0 228 256" fill="none" xmlns="http://www.w3.org/2000/svg">
<path d="M113.595 255.999C110.067 255.999 106.774 255.058 103.717 253.412L72.4369 234.832C67.7334 232.245 70.0852 231.305 71.4962 230.834C77.846 228.718 79.0219 228.247 85.6068 224.484C86.3132 224.013 87.2539 224.249 87.9586 224.719L111.948 239.066C112.889 239.536 114.065 239.536 114.77 239.066L208.61 184.738C209.551 184.268 210.021 183.327 210.021 182.151V73.7295C210.021 72.5536 209.551 71.6129 208.61 71.1426L114.77 17.0494C113.83 16.579 112.654 16.579 111.948 17.0494L18.1086 71.1435C17.1679 71.6138 16.6975 72.7897 16.6975 73.7304V182.151C16.6975 183.092 17.1679 184.268 18.1086 184.738L43.7446 199.554C57.6208 206.609 66.3215 198.378 66.3215 190.147V83.1366C66.3215 81.7255 67.4982 80.3145 69.1445 80.3145H81.1394C82.5504 80.3145 83.9615 81.4903 83.9615 83.1366V190.146C83.9615 208.726 73.848 219.544 56.2089 219.544C50.7998 219.544 46.5667 219.544 34.5727 213.665L9.8774 199.554C3.76282 196.026 0 189.441 0 182.385V73.9656C0 66.9103 3.76282 60.3254 9.8774 56.7968L103.717 2.46935C109.597 -0.823117 117.593 -0.823117 123.472 2.46935L217.312 56.7968C223.426 60.3245 227.189 66.9094 227.189 73.9656V182.386C227.189 189.442 223.426 196.026 217.312 199.554L123.472 253.883C120.415 255.294 116.887 256 113.595 256V255.999ZM142.522 181.445C101.365 181.445 92.8982 162.631 92.8982 146.638C92.8982 145.227 94.0741 143.816 95.7203 143.816H107.949C109.361 143.816 110.537 144.756 110.537 146.167C112.419 158.632 117.828 164.747 142.757 164.747C162.513 164.747 170.98 160.279 170.98 149.696C170.98 143.58 168.628 139.112 137.819 136.054C112.184 133.467 96.1906 127.823 96.1906 107.362C96.1906 88.3113 112.183 77.0229 138.994 77.0229C169.098 77.0229 183.915 87.3706 185.796 109.948C185.796 110.654 185.561 111.36 185.091 112.065C184.62 112.535 183.915 113.006 183.209 113.006H170.98C169.803 113.006 168.628 112.065 168.392 110.889C165.57 97.9545 158.28 93.7213 138.994 93.7213C117.358 93.7213 114.77 101.247 114.77 106.891C114.77 113.712 117.828 115.828 146.99 119.591C175.919 123.353 189.559 128.763 189.559 148.989C189.324 169.686 172.391 181.445 142.522 181.445V181.445Z" fill="#539E43"/>
</svg>
