<svg width="288" height="256" viewBox="0 0 288 256" fill="none" xmlns="http://www.w3.org/2000/svg">
<path d="M236.574 82.9748C233.512 81.9242 230.423 80.9509 227.312 80.0558C227.835 77.9203 228.316 75.8107 228.743 73.7381C235.754 39.7036 231.171 12.2846 215.515 3.25703C200.505 -5.39743 175.957 3.62681 151.164 25.2034C148.721 27.3337 146.332 29.5253 143.999 31.7763C142.437 30.2795 140.848 28.8117 139.232 27.3738C113.249 4.30343 87.2044 -5.41991 71.5657 3.63356C56.5687 12.315 52.128 38.0907 58.4401 70.346C59.0681 73.5405 59.7772 76.7186 60.5666 79.8771C56.8801 80.9247 53.3227 82.0396 49.9183 83.2265C19.4546 93.8479 0 110.493 0 127.758C0 145.589 20.8854 163.475 52.6146 174.32C55.187 175.195 57.7808 176.007 60.3936 176.753C59.545 180.155 58.7916 183.58 58.1344 187.024C52.1167 218.719 56.816 243.886 71.7725 252.512C87.2201 261.421 113.148 252.265 138.393 230.196C140.44 228.402 142.442 226.557 144.397 224.663C146.923 227.1 149.517 229.467 152.175 231.76C176.63 252.802 200.781 261.299 215.723 252.649C231.156 243.715 236.172 216.68 229.66 183.787C229.147 181.21 228.572 178.646 227.935 176.097C229.756 175.557 231.543 175.002 233.285 174.424C266.271 163.496 287.733 145.828 287.733 127.758C287.733 110.43 267.65 93.6726 236.574 82.9748V82.9748ZM229.42 162.758C227.846 163.278 226.232 163.78 224.587 164.269C220.945 152.741 216.031 140.483 210.017 127.817C215.756 115.454 220.481 103.352 224.02 91.899C226.964 92.7509 229.82 93.649 232.574 94.5965C259.2 103.763 275.441 117.315 275.441 127.758C275.441 138.88 257.901 153.32 229.42 162.758V162.758ZM217.602 186.174C220.482 200.718 220.892 213.868 218.985 224.149C217.272 233.387 213.826 239.545 209.564 242.012C200.497 247.261 181.105 240.439 160.192 222.442C157.72 220.31 155.307 218.11 152.957 215.844C161.065 206.978 169.168 196.67 177.076 185.221C190.986 183.987 204.127 181.968 216.045 179.214C216.619 181.521 217.138 183.842 217.602 186.174V186.174ZM98.0944 241.105C89.2354 244.233 82.1792 244.323 77.9138 241.864C68.8378 236.63 65.0647 216.422 70.2113 189.317C70.8231 186.114 71.5236 182.928 72.312 179.764C84.0978 182.372 97.1436 184.247 111.086 185.377C119.048 196.58 127.385 206.876 135.786 215.893C134.001 217.62 132.173 219.304 130.305 220.942C119.141 230.7 107.954 237.623 98.0944 241.105V241.105ZM56.5912 162.689C42.5609 157.893 30.974 151.661 23.0321 144.86C15.895 138.749 12.2927 132.681 12.2927 127.758C12.2927 117.28 27.9123 103.916 53.9645 94.8336C57.1262 93.7322 60.4351 92.6925 63.8688 91.7169C67.47 103.429 72.1928 115.674 77.8924 128.057C72.1187 140.622 67.3284 153.064 63.6924 164.913C61.3074 164.23 58.9397 163.489 56.5912 162.689V162.689ZM70.5035 67.9846C65.0962 40.3498 68.6872 19.5038 77.725 14.2718C87.3505 8.69923 108.636 16.6445 131.071 36.5655C132.534 37.8675 133.974 39.1958 135.388 40.5499C127.028 49.5269 118.768 59.7471 110.877 70.8832C97.3447 72.1376 84.3911 74.1517 72.4817 76.8503C71.7479 73.9125 71.0884 70.9567 70.5035 67.9857V67.9846ZM194.619 98.6326C191.806 93.7736 188.888 88.9759 185.869 84.2426C195.049 85.4036 203.845 86.9446 212.105 88.8283C209.626 96.7769 206.535 105.086 202.897 113.606C200.237 108.56 197.477 103.568 194.619 98.6326V98.6326ZM144.005 49.3347C149.674 55.4772 155.352 62.3344 160.937 69.775C149.608 69.24 138.259 69.2377 126.93 69.7683C132.52 62.3962 138.247 55.548 144.005 49.3347ZM93.0658 98.7169C90.2429 103.613 87.5345 108.574 84.943 113.596C81.3643 105.107 78.3016 96.759 75.8007 88.6979C84.0101 86.8614 92.7646 85.3598 101.887 84.2201C98.8333 88.9823 95.8923 93.8155 93.0658 98.7158V98.7169ZM102.149 172.17C92.7242 171.118 83.8382 169.694 75.631 167.907C78.1712 159.702 81.3014 151.176 84.9576 142.505C87.5594 147.531 90.279 152.495 93.1142 157.393C96.0297 162.428 99.0487 167.36 102.149 172.17ZM144.344 207.046C138.518 200.761 132.707 193.807 127.032 186.328C132.541 186.544 138.158 186.654 143.866 186.654C149.731 186.654 155.529 186.523 161.235 186.269C155.632 193.882 149.975 200.846 144.344 207.046ZM203.012 142.062C206.859 150.829 210.1 159.309 212.674 167.374C204.332 169.278 195.325 170.811 185.834 171.949C188.875 167.128 191.82 162.247 194.667 157.309C197.562 152.289 200.344 147.206 203.012 142.062V142.062ZM184.02 151.167C179.661 158.739 175.058 166.167 170.216 173.439C161.447 174.06 152.658 174.368 143.866 174.364C134.912 174.364 126.202 174.085 117.815 173.541C112.848 166.286 108.156 158.845 103.751 151.235H103.752C99.3681 143.665 95.2728 135.932 91.4754 128.051C95.2631 120.169 99.346 112.431 103.715 104.856L103.714 104.857C108.082 97.2796 112.736 89.8708 117.666 82.6466C126.223 81.9992 134.997 81.662 143.865 81.662H143.866C152.775 81.662 161.561 82.0025 170.115 82.6544C174.996 89.8678 179.62 97.2512 183.979 104.791C188.363 112.35 192.5 120.049 196.383 127.877C192.54 135.785 188.416 143.553 184.02 151.167V151.167ZM209.376 13.9054C219.011 19.4622 222.758 41.8706 216.704 71.2564C216.318 73.1312 215.884 75.0408 215.412 76.9773C203.473 74.2214 190.511 72.1724 176.939 70.899C169.033 59.6403 160.84 49.4044 152.616 40.5432C154.772 38.4655 156.978 36.4418 159.234 34.4738C180.477 15.9881 200.331 8.68911 209.376 13.9054V13.9054ZM143.866 102.064C158.056 102.064 169.56 113.568 169.56 127.758C169.56 141.948 158.056 153.451 143.866 153.451C129.676 153.451 118.173 141.948 118.173 127.758C118.173 113.568 129.676 102.064 143.866 102.064V102.064Z" fill="#00D8FF"/>
</svg>
