<svg width="342" height="256" viewBox="0 0 342 256" fill="none" xmlns="http://www.w3.org/2000/svg">
<path d="M293.939 147.165C282.03 147.226 271.679 150.095 263.013 154.335C259.832 148.037 256.653 142.426 256.092 138.31C255.468 133.51 254.721 130.579 255.468 124.843C256.217 119.106 259.584 110.938 259.521 110.315C259.459 109.692 258.772 106.761 251.914 106.699C245.056 106.636 239.132 108.008 238.446 109.816C237.76 111.624 236.451 115.74 235.578 119.978C234.393 126.215 221.862 148.473 214.692 160.132C212.384 155.582 210.389 151.591 209.952 148.411C209.329 143.611 208.58 140.68 209.329 134.943C210.078 129.207 213.445 121.04 213.382 120.416C213.319 119.792 212.633 116.861 205.775 116.8C198.915 116.737 192.992 118.109 192.307 119.917C191.621 121.726 190.872 125.965 189.439 130.08C188.004 134.196 171.357 171.358 166.993 180.958C165.229 184.844 163.379 188.69 161.443 192.494C161.443 192.494 161.381 192.681 161.193 192.992C160.585 194.185 159.962 195.37 159.324 196.547V196.608C158.388 198.293 157.391 199.851 156.892 199.851C156.517 199.851 155.831 195.362 157.016 189.251C159.51 176.345 165.433 156.268 165.372 155.582C165.372 155.208 166.494 151.717 161.506 149.907C156.642 148.1 154.897 151.092 154.46 151.092C154.024 151.092 153.711 152.152 153.711 152.152C153.711 152.152 159.137 129.582 143.361 129.582C133.511 129.582 119.917 140.368 113.184 150.095C105.529 154.26 97.8802 158.438 90.2383 162.628C86.5612 164.685 82.7571 166.743 79.203 168.675C78.9529 168.427 78.7042 168.114 78.4542 167.865C59.3746 147.476 24.0849 133.073 25.5812 105.702C26.1428 95.7253 29.5712 69.5375 93.3565 37.7392C145.855 11.8629 187.631 19.0326 194.864 34.9325C205.213 57.629 172.48 99.7782 118.234 105.888C97.5337 108.195 86.6842 100.214 83.9418 97.2216C81.0736 94.1034 80.6364 93.9162 79.576 94.5406C77.8311 95.4766 78.9529 98.2819 79.576 99.9025C81.198 104.141 87.8689 111.624 99.1543 115.304C109.131 118.545 133.385 120.354 162.752 109.006C195.611 96.2856 221.3 60.9331 213.756 31.3169C206.211 1.26346 156.33 -8.65005 109.131 8.12163C81.0736 18.0993 50.6458 33.8107 28.7609 54.2621C2.76032 78.5779 -1.35538 99.7153 0.328072 108.57C6.37727 139.994 49.7111 160.445 67.0444 175.596C66.1712 176.095 65.3596 176.532 64.675 176.907C56.0077 181.208 22.9617 198.479 14.7317 216.748C5.37976 237.448 16.2293 252.289 23.399 254.283C45.6583 260.456 68.5406 249.358 80.8236 231.026C93.1065 212.695 91.6102 188.877 85.9368 177.966C85.8739 177.841 85.8124 177.716 85.6867 177.591C87.9318 176.282 90.2383 174.91 92.4834 173.601C96.6096 171.162 100.788 168.813 105.016 166.555C102.896 172.354 101.337 179.275 100.589 189.251C99.6531 200.974 104.453 216.186 110.751 222.171C113.558 224.792 116.862 224.854 118.983 224.854C126.34 224.854 129.645 218.743 133.323 211.51C137.812 202.657 141.865 192.369 141.865 192.369C141.865 192.369 136.815 220.178 150.532 220.178C155.52 220.178 160.57 213.693 162.815 210.389V210.45C162.815 210.45 162.94 210.263 163.19 209.827C163.688 209.017 164 208.517 164 208.517V208.394C165.995 204.901 170.485 196.983 177.156 183.826C185.761 166.868 194.053 145.669 194.053 145.669C194.053 145.669 194.802 150.843 197.357 159.448C198.855 164.498 201.971 170.047 204.466 175.409C202.471 178.216 201.223 179.774 201.223 179.774L201.286 179.836C199.664 181.956 197.919 184.262 195.986 186.509C189.189 194.613 181.085 203.905 179.961 206.584C178.651 209.764 178.964 212.072 181.459 213.943C183.267 215.315 186.508 215.5 189.813 215.315C195.924 214.877 200.226 213.381 202.345 212.446C205.65 211.262 209.516 209.453 213.132 206.772C219.804 201.846 223.855 194.8 223.482 185.511C223.295 180.398 221.612 175.285 219.554 170.483C220.178 169.611 220.739 168.738 221.363 167.865C231.9 152.464 240.068 135.567 240.068 135.567C240.068 135.567 240.817 140.741 243.372 149.347C244.62 153.712 247.176 158.45 249.42 163.063C239.507 171.108 233.396 180.46 231.214 186.57C227.287 197.918 230.341 203.03 236.14 204.215C238.758 204.777 242.499 203.529 245.243 202.344C248.734 201.223 252.85 199.29 256.778 196.421C263.451 191.496 269.872 184.637 269.497 175.348C269.31 171.108 268.188 166.929 266.629 162.876C275.046 159.386 285.896 157.453 299.737 159.073C329.417 162.565 335.278 181.083 334.154 188.878C333.033 196.671 326.797 200.911 324.741 202.22C322.682 203.53 321.997 203.966 322.184 204.901C322.433 206.273 323.431 206.211 325.177 205.961C327.609 205.525 340.765 199.663 341.325 185.323C342.261 166.992 324.802 146.978 293.939 147.165V147.165ZM64.9865 224.355C55.1345 235.079 41.4182 239.132 35.4947 235.703C29.1353 232.023 31.6291 216.186 43.7248 204.84C51.0817 197.919 60.5593 191.495 66.8572 187.568C68.2906 186.695 70.4113 185.448 72.9679 183.889C73.4038 183.639 73.6538 183.515 73.6538 183.515L75.1501 182.579C79.576 198.79 75.3373 213.07 64.9865 224.355V224.355ZM136.69 175.596C133.261 183.952 126.091 205.338 121.727 204.154C117.985 203.156 115.677 186.945 120.978 170.92C123.659 162.876 129.332 153.274 132.638 149.534C137.999 143.548 143.923 141.552 145.356 143.985C147.165 147.165 138.81 170.359 136.69 175.596V175.596ZM195.861 203.904C194.427 204.652 193.056 205.151 192.431 204.777C191.996 204.527 193.056 203.529 193.056 203.529C193.056 203.529 200.476 195.549 203.405 191.932C205.09 189.813 207.084 187.319 209.205 184.512V185.323C209.205 194.863 199.976 201.285 195.86 203.904H195.861ZM241.502 193.491C240.441 192.742 240.629 190.249 244.183 182.455C245.555 179.399 248.796 174.287 254.346 169.361C254.969 171.356 255.407 173.29 255.344 175.098C255.281 187.132 246.678 191.621 241.502 193.491Z" fill="#CD6799"/>
</svg>
